<svg xmlns="http://www.w3.org/2000/svg" width="1200" height="1200" viewBox="0 0 1200 1200" role="img" aria-labelledby="title desc">
  <title id="title">Canvas Bag</title>
  <desc id="desc">Kampung Cetak product artwork for Canvas Bag</desc>
  <defs>
    <linearGradient id="bg" x1="0" y1="0" x2="1" y2="1"><stop stop-color="hsl(216 48% 15%)"/><stop offset="1" stop-color="hsl(270 55% 7%)"/></linearGradient>
    <linearGradient id="product" x1="0" y1="0" x2="1" y2="1"><stop stop-color="hsl(216 64% 58%)"/><stop offset="1" stop-color="hsl(270 62% 34%)"/></linearGradient>
    <filter id="shadow"><feDropShadow dx="0" dy="28" stdDeviation="30" flood-color="#000" flood-opacity=".42"/></filter>
    <radialGradient id="glow"><stop stop-color="#f0b90b" stop-opacity=".24"/><stop offset="1" stop-color="#f0b90b" stop-opacity="0"/></radialGradient>
  </defs>
  <rect width="1200" height="1200" rx="72" fill="url(#bg)"/>
  <circle cx="1020" cy="110" r="390" fill="url(#glow)"/>
  <circle cx="100" cy="1060" r="310" fill="url(#glow)" opacity=".45"/>
  <circle cx="816" cy="795" r="3" fill="rgba(255,255,255,.2)"/><circle cx="101" cy="168" r="3" fill="rgba(255,255,255,.2)"/><circle cx="870" cy="760" r="3" fill="rgba(255,255,255,.2)"/><circle cx="821" cy="282" r="3" fill="rgba(255,255,255,.2)"/><circle cx="363" cy="948" r="3" fill="rgba(255,255,255,.2)"/><circle cx="220" cy="507" r="3" fill="rgba(255,255,255,.2)"/><circle cx="755" cy="772" r="3" fill="rgba(255,255,255,.2)"/>
  <g filter="url(#shadow)"><g transform="translate(600 590) rotate(0)"><path d="M0-260l245 115v300L0 280l-245-125v-300z" fill="url(#product)" stroke="rgba(255,255,255,.45)" stroke-width="8"/><path d="M0-260v540M-245-145L0-25l245-120" fill="none" stroke="rgba(255,255,255,.55)" stroke-width="8"/><rect x="-72" y="40" width="144" height="105" rx="22" fill="#f0b90b"/><path d="M-34 92h68" stroke="#111" stroke-width="13" stroke-linecap="round"/></g></g>
  <rect x="64" y="62" width="310" height="54" rx="27" fill="rgba(255,255,255,.09)" stroke="rgba(255,255,255,.16)"/>
  <circle cx="95" cy="89" r="9" fill="#f0b90b"/>
  <text x="119" y="96" fill="white" opacity=".8" font-family="Arial, sans-serif" font-size="22" font-weight="700" letter-spacing="2">CANVAS BAG</text>
  <text x="64" y="1010" fill="white" font-family="Arial, sans-serif" font-size="62" font-weight="800">Canvas Bag</text>
  <text x="66" y="1062" fill="white" opacity=".58" font-family="Arial, sans-serif" font-size="23" font-weight="600" letter-spacing="4">KAMPUNG CETAK / 6800</text>
  <rect x="64" y="1100" width="1072" height="2" fill="rgba(255,255,255,.16)"/>
  <text x="64" y="1145" fill="#f0b90b" font-family="Arial, sans-serif" font-size="21" font-weight="800" letter-spacing="3">PRINTED WITH PURPOSE</text>
</svg>